<svg width="57" height="60" viewBox="0 0 57 60" fill="none" xmlns="http://www.w3.org/2000/svg">
<path d="M1.22909 17.3288C1.22909 19.528 4.74535 18.0618 4.74535 18.0618L39.5173 18.0618C39.5173 18.0618 41.2755 16.5957 38.9313 16.1069C36.5871 15.6182 36.5871 16.1069 36.5871 16.1069C34.186 19.8298 34.7343 15.7116 33.2662 16.1069C33.2662 16.1069 32.0941 17.5731 33.2662 14.6408C34.4383 11.7084 25.2569 16.1069 25.2569 16.1069C25.2569 16.1069 23.3034 15.1295 20.3732 16.1069C17.443 17.0844 14.7081 18.5506 16.0755 15.3738C17.443 12.1971 15.4895 10.9753 15.0988 15.3738C14.7081 19.7723 14.7081 15.8626 13.3407 14.6408C11.9732 13.4189 3.96396 12.6859 7.28488 14.6408C10.6058 16.5957 4.9407 17.8175 4.15931 15.3738C3.37791 12.9302 1.22909 15.1295 1.22909 17.3288Z" fill="#86CDF4" stroke="black" stroke-width="0.1"/>
<rect x="0.5" y="16.723" width="40.3793" height="2.2446" rx="1.1223" fill="#0E546A" stroke="black"/>
<path d="M2.41739 19.5041H38.9556C39.2816 19.5041 39.5015 19.7793 39.4481 20.0694C38.8634 23.2497 37.1328 32.4536 35.1806 40.8595C34.2039 45.0647 33.1748 49.057 32.2089 51.9928C31.7248 53.4638 31.2633 54.6488 30.8403 55.4582C30.6277 55.865 30.4371 56.1527 30.2742 56.3319C30.1298 56.4905 30.0568 56.5103 30.0525 56.5123H30.0402H30.0205H30.0006H29.9804H29.96H29.9394H29.9185H29.8974H29.876H29.8544H29.8326H29.8106H29.7883H29.7657H29.743H29.72H29.6968H29.6733H29.6497H29.6258H29.6016H29.5773H29.5527H29.5279H29.5029H29.4777H29.4522H29.4266H29.4007H29.3746H29.3483H29.3217H29.295H29.268H29.2409H29.2135H29.1859H29.1581H29.1301H29.1019H29.0735H29.0448H29.016H28.987H28.9577H28.9283H28.8987H28.8689H28.8388H28.8086H28.7782H28.7476H28.7168H28.6858H28.6546H28.6232H28.5917H28.5599H28.528H28.4958H28.4635H28.431H28.3983H28.3655H28.3324H28.2992H28.2658H28.2322H28.1984H28.1645H28.1304H28.0961H28.0616H28.027H27.9922H27.9572H27.9221H27.8868H27.8513H27.8156H27.7798H27.7438H27.7077H27.6714H27.6349H27.5983H27.5615H27.5246H27.4874H27.4502H27.4128H27.3752H27.3375H27.2996H27.2616H27.2234H27.1851H27.1466H27.108H27.0692H27.0303H26.9912H26.952H26.9127H26.8732H26.8335H26.7938H26.7539H26.7138H26.6736H26.6333H26.5929H26.5523H26.5115H26.4707H26.4297H26.3886H26.3474H26.306H26.2645H26.2229H26.1811H26.1392H26.0973H26.0551H26.0129H25.9705H25.9281H25.8855H25.8428H25.7999H25.757H25.714H25.6708H25.6275H25.5841H25.5406H25.497H25.4533H25.4095H25.3655H25.3215H25.2774H25.2331H25.1888H25.1443H25.0998H25.0552H25.0104H24.9656H24.9206H24.8756H24.8305H24.7853H24.74H24.6946H24.6491H24.6035H24.5578H24.5121H24.4662H24.4203H24.3743H24.3282H24.2821H24.2358H24.1895H24.1431H24.0966H24.05H24.0034H23.9566H23.9098H23.863H23.816H23.769H23.7219H23.6748H23.6276H23.5803H23.5329H23.4855H23.4381H23.3905H23.3429H23.2952H23.2475H23.1997H23.1519H23.104H23.056H23.008H22.96H22.9118H22.8637H22.8154H22.7672H22.7188H22.6705H22.6221H22.5736H22.5251H22.4765H22.4279H22.3793H22.3306H22.2819H22.2331H22.1843H22.1355H22.0866H22.0377H21.9888H21.9398H21.8908H21.8418H21.7927H21.7436H21.6945H21.6453H21.5961H21.5469H21.4977H21.4484H21.3992H21.3499H21.3006H21.2512H21.2019H21.1525H21.1031H21.0537H21.0043H20.9548H20.9054H20.8559H20.8065H20.757H20.7075H20.658H20.6085H20.559H20.5095H20.46H20.4105H20.361H20.3115H20.2619H20.2124H20.1629H20.1134H20.0639H20.0144H19.9649H19.9154H19.8659H19.8165H19.767H19.7176H19.6681H19.6187H19.5693H19.5199H19.4706H19.4212H19.3719H19.3225H19.2732H19.224H19.1747H19.1255H19.0763H19.0271H18.9779H18.9288H18.8797H18.8306H18.7816H18.7326H18.6836H18.6347H18.5858H18.5369H18.4881H18.4393H18.3905H18.3418H18.2931H18.2445H18.1959H18.1473H18.0988H18.0503H18.0019H17.9535H17.9052H17.8569H17.8087H17.7605H17.7124H17.6644H17.6163H17.5684H17.5205H17.4726H17.4248H17.3771H17.3294H17.2818H17.2343H17.1868H17.1394H17.092H17.0448H16.9975H16.9504H16.9033H16.8563H16.8094H16.7625H16.7157H16.669H16.6223H16.5757H16.5293H16.4828H16.4365H16.3902H16.3441H16.298H16.252H16.206H16.1602H16.1144H16.0688H16.0232H15.9777H15.9323H15.887H15.8418H15.7966H15.7516H15.7067H15.6618H15.6171H15.5724H15.5279H15.4835H15.4391H15.3949H15.3507H15.3067H15.2627H15.2189H15.1752H15.1316H15.0881H15.0447H15.0014H14.9582H14.9152H14.8722H14.8294H14.7867H14.7441H14.7016H14.6593H14.617H14.5749H14.5329H14.491H14.4493H14.4076H14.3661H14.3248H14.2835H14.2424H14.2014H14.1606H14.1198H14.0792H14.0388H13.9985H13.9583H13.9182H13.8783H13.8385H13.7989H13.7594H13.72H13.6808H13.6418H13.6028H13.5641H13.5254H13.4869H13.4486H13.4104H13.3724H13.3345H13.2968H13.2592H13.2218H13.1845H13.1474H13.1105H13.0737H13.037H13.0006H12.9642H12.9281H12.8921H12.8563H12.8206H12.7851H12.7498H12.7147H12.6797H12.6449H12.6102H12.5758H12.5415H12.5073H12.4734H12.4396H12.406H12.3726H12.3394H12.3063H12.2735H12.2408H12.2083H12.176H12.1438H12.1119H12.0801H12.0485H12.0171H11.9859H11.9549H11.9241H11.8935H11.8631H11.8329H11.8028H11.773H11.7434H11.7139H11.6847H11.6557H11.6268H11.5982H11.5698H11.5416H11.5135H11.4857H11.4581H11.4307H11.4036H11.3766H11.3498H11.3233H11.297H11.2709H11.245H11.2193H11.1938H11.1686H11.1436H11.1188H11.0942H11.0698H11.0457H11.0218H10.9981H10.9747H10.9515H10.9285H10.9057H10.8832H10.8609H10.8388H10.817H10.7954H10.774H10.7529H10.732H10.7113H10.6909H10.6708H10.6508H10.6312H10.6117H10.5925H10.5736H10.5549H10.5364H10.5182H10.5003H10.4826H10.4651H10.4479H10.431H10.4143H10.3979H10.3817H10.3658H10.3592C10.3337 56.4887 10.2946 56.4463 10.2436 56.3756C10.1128 56.1943 9.95641 55.9023 9.77915 55.4912C9.42714 54.6748 9.03254 53.4832 8.61099 52.0093C7.7695 49.0673 6.83972 45.0693 5.94167 40.8619C4.14632 32.4507 2.48634 23.2433 1.92376 20.0678C1.87235 19.7776 2.09279 19.5041 2.41739 19.5041Z" fill="#43AED0" stroke="black"/>
<path d="M34.5292 29.4241C36.4379 27.7701 37.7999 26.1515 38.7878 24.1903C39.4986 22.7791 40.0233 21.1756 40.4114 19.2308C39.6176 23.0226 37.3309 25.89 34.3835 28.4441C30.6612 31.6696 25.6263 33.4719 20.3888 33.4719C15.1512 33.4719 10.1163 31.6696 6.39405 28.4441C3.62572 26.0452 1.74967 23.0019 0.968933 19.7082C1.57538 23.3206 2.65619 26.4157 5.58688 28.9553C9.50197 32.3479 14.8255 34.2636 20.3888 34.2635C25.9683 34.2635 30.6249 32.8073 34.5292 29.4241ZM40.7037 16.7904C40.6791 17.4765 40.61 18.1346 40.5001 18.7672C40.6156 18.1383 40.7178 17.4745 40.8085 16.7711C40.8114 16.7487 40.794 16.723 40.7628 16.723C40.7502 16.723 40.7377 16.7273 40.7256 16.7393C40.7129 16.7519 40.7044 16.7698 40.7037 16.7904ZM0.560562 16.7231C0.56448 16.7568 0.568406 16.7905 0.572342 16.8241C0.571226 16.7962 0.570187 16.7683 0.569226 16.7404C0.568992 16.7336 0.566385 16.7285 0.562826 16.7249C0.561823 16.7239 0.561025 16.7234 0.560562 16.7231ZM0.5605 16.7226C0.560516 16.7227 0.560533 16.7228 0.560549 16.723C0.560577 16.723 0.560527 16.723 0.560352 16.723C0.560286 16.7229 0.56023 16.7229 0.560191 16.7229L0.5605 16.7226Z" fill="#E5E5E5" stroke="black"/>
<path d="M14.7491 33.6048C14.7491 32.9648 15.2679 32.446 15.9079 32.446H24.6521C25.2921 32.446 25.8109 32.9648 25.8109 33.6048V33.6048C25.8109 34.2447 25.2921 34.7636 24.6521 34.7636H15.9079C15.2679 34.7636 14.7491 34.2447 14.7491 33.6048V33.6048Z" fill="black"/>
<rect x="0.651877" y="0.137409" width="1.55831" height="51.889" rx="0.779153" transform="matrix(0.805698 -0.592327 0.498057 0.867144 18.9043 1.9197)" fill="#944141" stroke="black"/>
<path d="M47.8588 40.8505C52.5161 45.9945 56.7508 50.671 56.7508 50.671L45.6655 60C45.6655 60 42.7947 55.1464 39.6493 47.4091C36.5038 39.6718 43.2015 35.7065 47.8588 40.8505Z" fill="#C4C4C4"/>
<path d="M47.9982 40.6092C50.3527 43.1467 52.5003 45.7439 54.06 47.7079C54.8396 48.6896 55.4717 49.5122 55.9086 50.0891C56.05 50.2759 56.171 50.4368 56.2699 50.5691L45.625 59.1713C45.5593 59.0541 45.4819 58.9145 45.3936 58.7533C45.0794 58.18 44.6278 57.333 44.0803 56.2425C42.9851 54.0611 41.5067 50.9062 39.9772 47.0179C38.51 43.2883 39.5162 40.5712 41.2545 39.334C43.0276 38.0721 45.7587 38.1958 47.9982 40.6092Z" fill="#EECF81" stroke="black"/>
<path d="M40.1706 47.4221L39.9234 46.7695L48.2609 40.7669L48.6278 41.182L40.1706 47.4221Z" fill="#43AED0" stroke="black"/>
<line y1="-0.5" x2="1.01353" y2="-0.5" transform="matrix(0.404231 0.914657 -0.870391 0.492361 45.886 57.9393)" stroke="black"/>
<line y1="-0.5" x2="2.02705" y2="-0.5" transform="matrix(0.404229 0.914658 -0.87039 0.492362 46.2957 56.5488)" stroke="black"/>
<line y1="-0.5" x2="1.01352" y2="-0.5" transform="matrix(0.404225 0.91466 -0.870387 0.492368 47.5248 56.5488)" stroke="black"/>
<line y1="-0.5" x2="1.01352" y2="-0.5" transform="matrix(0.404228 0.914658 -0.870389 0.492364 48.3442 56.0853)" stroke="black"/>
<line y1="-0.5" x2="2.02705" y2="-0.5" transform="matrix(0.404229 0.914658 -0.87039 0.492362 48.7539 54.6947)" stroke="black"/>
<line y1="-0.5" x2="2.02705" y2="-0.5" transform="matrix(0.404229 0.914658 -0.87039 0.492363 49.5733 53.7677)" stroke="black"/>
<line y1="-0.5" x2="2.02706" y2="-0.5" transform="matrix(0.40423 0.914657 -0.870391 0.492361 50.3927 52.8406)" stroke="black"/>
<line y1="-0.5" x2="2.02705" y2="-0.5" transform="matrix(0.404227 0.914659 -0.870389 0.492365 51.2121 52.3771)" stroke="black"/>
<line y1="-0.5" x2="2.02705" y2="-0.5" transform="matrix(0.404229 0.914658 -0.87039 0.492362 52.0315 51.9136)" stroke="black"/>
<line y1="-0.5" x2="2.02705" y2="-0.5" transform="matrix(0.404229 0.914658 -0.87039 0.492362 52.8509 50.9866)" stroke="black"/>
<line y1="-0.5" x2="2.02705" y2="-0.5" transform="matrix(0.404229 0.914658 -0.87039 0.492362 53.6702 50.5231)" stroke="black"/>
<line y1="-0.5" x2="2.02705" y2="-0.5" transform="matrix(0.404229 0.914658 -0.87039 0.492362 54.4896 49.5961)" stroke="black"/>
<line y1="-0.5" x2="2.02705" y2="-0.5" transform="matrix(0.404229 0.914658 -0.87039 0.492362 55.309 49.1325)" stroke="black"/>
<path d="M45.7517 13.9542C45.8409 13.9929 45.9708 14.0787 46.1023 14.1892C46.2334 14.2994 46.3621 14.4309 46.4505 14.5585C46.5412 14.6896 46.5792 14.8017 46.5576 14.8809C46.5374 14.955 46.4554 15.0284 46.2317 15.0532C46.1253 15.065 45.9838 15.0489 45.8148 15.0091C45.6465 14.9695 45.4542 14.9073 45.2476 14.8293C44.8345 14.6734 44.3678 14.4556 43.9286 14.2342C43.4895 14.0129 43.0787 13.7883 42.7776 13.6191C42.6683 13.5576 42.5734 13.5034 42.497 13.4594C42.5696 13.468 42.6566 13.4785 42.755 13.4905C43.0534 13.5268 43.4554 13.5771 43.8692 13.6325C44.2831 13.6879 44.7086 13.7484 45.0543 13.8054C45.2272 13.8339 45.3797 13.8615 45.5007 13.887C45.6232 13.9128 45.7091 13.9358 45.7517 13.9542Z" fill="#86CDF4" stroke="black" stroke-width="0.1"/>
<path d="M47.7791 18.0347C47.8318 18.0959 47.8984 18.2091 47.9575 18.3435C48.0164 18.4773 48.0655 18.6272 48.0855 18.7597C48.1061 18.8959 48.0937 18.997 48.0496 19.0515C48.0086 19.1023 47.9219 19.1331 47.7443 19.0758C47.6605 19.0487 47.5599 18.9872 47.4465 18.8967C47.3337 18.8066 47.2108 18.6899 47.0827 18.5554C46.8267 18.2864 46.5525 17.949 46.3004 17.6179C46.0484 17.287 45.819 16.9633 45.6526 16.7223C45.5997 16.6457 45.5532 16.5775 45.5144 16.52C45.5614 16.5492 45.6157 16.5831 45.676 16.6206C45.8892 16.7537 46.176 16.934 46.4698 17.1225C46.7637 17.311 47.0645 17.5077 47.306 17.6738C47.4267 17.7569 47.5323 17.8321 47.6146 17.8946C47.6983 17.9581 47.7543 18.0059 47.7791 18.0347Z" fill="#86CDF4" stroke="black" stroke-width="0.1"/>
</svg>
